Coordinates
version=1
nRows=8
nColumns=36
inDegrees=yes

Units are S.I. units (second, meters, Newtons, ...)
If the header above contains a line with 'inDegrees', this indicates whether rotational values are in degrees (yes) or radians (no).

endheader
time	pelvis_tilt	pelvis_list	pelvis_rotation	pelvis_tx	pelvis_ty	pelvis_tz	hip_flexion_r	hip_adduction_r	hip_rotation_r	knee_angle_r	knee_angle_r_beta	ankle_angle_r	subtalar_angle_r	mtp_angle_r	hip_flexion_l	hip_adduction_l	hip_rotation_l	knee_angle_l	knee_angle_l_beta	ankle_angle_l	subtalar_angle_l	mtp_angle_l	lumbar_extension	lumbar_bending	lumbar_rotation	arm_flex_r	arm_add_r	arm_rot_r	elbow_flex_r	pro_sup_r	arm_flex_l	arm_add_l	arm_rot_l	elbow_flex_l	pro_sup_l
      0.00000000	      3.87360109	     -3.96181844	     -3.77110883	     -0.90621732	      1.26255952	     -0.09075459	     -5.15839048	      2.80686107	      0.94024038	      6.25994425	      0.10925664	      2.19420610	     -9.60214126	     -6.17606271	     -7.86750798	     -3.53497809	      0.40634036	      3.94417653	      0.06883887	      9.46560809	     -3.94907945	     -6.17606271	    -14.85404821	      2.91454232	     -0.97544391	     10.77825165	     -6.84847530	     31.96816180	     19.29107118	     68.51434130	      6.51655808	     -7.76955366	     29.02430303	     18.68230712	     59.95314242
      0.00416670	      2.02687384	     -3.60803017	     -3.28201688	     -0.90563110	      1.26220081	     -0.09276735	     -3.20861708	      2.73137212	      1.50680664	      6.33511194	      0.11056856	      4.26816944	     -6.24509933	     -6.84016363	     -5.91411235	     -2.91868413	      2.24276595	      3.25611185	      0.05682987	      8.78900545	     -3.15158194	     -6.84016363	    -12.43842449	      2.52056118	     -1.12987943	     10.02891932	     -6.49021249	     29.81744105	     18.89378016	     73.08637242	      6.64375316	     -7.48968953	     29.93396497	     18.00199534	     61.55515746
      0.00833330	      1.12877840	     -2.85583892	     -3.30818685	     -0.90294839	      1.26139981	     -0.09057384	     -2.79423904	      2.14005260	      1.08872344	      5.16590132	      0.09016199	      4.31758511	     -5.81057616	     -6.87003929	     -5.26027423	     -2.20667906	      2.04078410	      2.65333059	      0.04630936	      8.15780567	     -2.76268682	     -6.87003929	    -11.20295280	      1.31142597	     -1.06274494	      9.60215024	     -6.12264626	     29.71762141	     19.27662799	     72.70552615	      6.61707135	     -8.04045151	     29.92488269	     18.21022550	     61.58586252
      0.01250000	      1.50728587	     -2.64844194	     -3.11541883	     -0.90245497	      1.26322141	     -0.09025155	     -3.64564601	      1.91626338	      0.51658758	      4.33880834	      0.07572649	      4.46855024	     -4.82069954	     -6.91551886	     -6.12436695	     -1.95159156	      2.16354752	      1.83599625	      0.03204418	      7.55767849	     -2.82092040	     -6.91551886	    -11.66534786	      0.86368721	     -1.06396052	      9.76997826	     -5.77498515	     29.21062142	     19.16900318	     72.37801620	      7.05544330	     -8.24877057	     30.32455712	     17.82766197	     61.91810861
      0.01666670	      1.53260411	     -2.57154686	     -3.13422605	     -0.90361735	      1.26174568	     -0.09042702	     -3.87720882	      1.85909278	      0.18007542	      3.92099189	      0.06843422	      4.63677669	     -4.39195643	     -7.22582144	     -6.36269335	     -1.80546729	      2.38994999	      1.41547290	      0.02470466	      7.48586789	     -2.74361559	     -7.22582144	    -11.90798518	      0.65271499	     -0.61775533	      9.27285968	     -5.50681858	     23.95012155	     20.16643873	     79.28077496	      7.61563583	     -8.38635649	     30.50272470	     17.76770379	     66.35976295
      0.02083330	      1.63347765	     -2.47640970	     -2.95635116	     -0.90145614	      1.26497392	     -0.09076545	     -4.25523574	      1.85212915	      0.22116580	      3.40267403	      0.05938787	      4.52309160	     -3.98262895	     -7.31314538	     -6.58824632	     -1.70857406	      2.70987599	      1.14756699	      0.02002882	      7.27112386	     -2.87210025	     -7.31314538	    -12.02777193	      0.50262340	     -0.68768870	      9.30659781	     -5.35148892	     23.76201805	     20.42935716	     77.20765822	      7.76267849	     -8.40138996	     29.38288262	     17.97146897	     65.52072794
      0.02500000	      1.60428349	     -2.36750243	     -2.77592167	     -0.90077226	      1.26728094	     -0.09100503	     -4.45180108	      1.77382880	      0.26367242	      2.98767184	      0.05214471	      4.35621020	     -3.76566412	     -7.46013997	     -6.57666925	     -1.59161653	      3.11418074	      1.04454453	      0.01823074	      6.99075609	     -3.05579153	     -7.46013997	    -12.05192365	      0.40216770	     -0.67300624	      9.24846519	     -5.10909699	     21.39819180	     20.57792028	     81.09050964	      7.83716908	     -8.27993455	     26.85828497	     18.34211747	     68.13053617
      0.02916670	      1.66621253	     -2.29626250	     -2.66469603	     -0.89973755	      1.26673609	     -0.09238522	     -4.74594835	      1.68821001	      0.54624069	      2.64773753	      0.04621174	      4.11028955	     -3.68021343	     -7.47330088	     -6.67955659	     -1.48646798	      3.50220829	      0.97980443	      0.01710081	      6.73313718	     -3.11685059	     -7.47330088	    -12.08151829	      0.35623492	     -0.64151667	      9.20329031	     -5.02070336	     21.09020959	     20.75707257	     76.95594094	      7.90737110	     -8.20776571	     25.93467890	     18.81579125	     66.17003230
